<?xml version="1.0" encoding="UTF-8" standalone="no"?>
<svg
   width="900"
   height="473"
   version="1.1"
   id="svg68"
   sodipodi:docname="momo-studio-wwN92-lVE9k-unsplash_edited.svg"
   inkscape:version="1.2.2 (732a01da63, 2022-12-09)"
   xmlns:inkscape="http://www.inkscape.org/namespaces/inkscape"
   xmlns:sodipodi="http://sodipodi.sourceforge.net/DTD/sodipodi-0.dtd"
   xmlns="http://www.w3.org/2000/svg"
   xmlns:svg="http://www.w3.org/2000/svg">
  <defs
     id="defs72" />
  <sodipodi:namedview
     id="namedview70"
     pagecolor="#ffffff"
     bordercolor="#000000"
     borderopacity="0.25"
     inkscape:showpageshadow="2"
     inkscape:pageopacity="0.0"
     inkscape:pagecheckerboard="0"
     inkscape:deskcolor="#d1d1d1"
     showgrid="false"
     inkscape:zoom="1"
     inkscape:cx="581"
     inkscape:cy="450"
     inkscape:window-width="1920"
     inkscape:window-height="1017"
     inkscape:window-x="-8"
     inkscape:window-y="-8"
     inkscape:window-maximized="1"
     inkscape:current-layer="svg68"
     showguides="true">
    <sodipodi:guide
       position="59.9273,3.30432"
       orientation="0,-1"
       id="guide2673"
       inkscape:locked="false" />
    <sodipodi:guide
       position="-2.6516504,0.078144785"
       orientation="0,-1"
       id="guide2675"
       inkscape:locked="false" />
    <sodipodi:guide
       position="900.14693,-8.893272"
       orientation="1,0"
       id="guide2677"
       inkscape:locked="false" />
    <sodipodi:guide
       position="0,0.12233946"
       orientation="1,0"
       id="guide2679"
       inkscape:locked="false" />
  </sodipodi:namedview>
  <g
     inkscape:groupmode="layer"
     id="layer4"
     inkscape:label="background"
     style="display:inline" />
  <g
     inkscape:groupmode="layer"
     id="layer5"
     inkscape:label="Layer 1" />
  <path
     style="display:inline;fill:#437371;fill-opacity:1;stroke-width:0.760017"
     d="M 78.527764,456.37276 C 52.467653,438.37942 9.9429019,337.53996 54.517084,275.72659 78.28934,242.76035 111.85073,251.9476 122.83252,204.58803 c 10.26622,-44.27364 85.72109,-80.99027 130.32769,-71.33271 58.74282,12.71812 74.76796,-86.028411 133.74087,-108.732957 38.432,-14.7962999 83.13981,-21.9967982 128.1834,-22.644578 38.71271,-0.5567374 77.67347,3.7267225 113.11132,12.18819 87.48698,20.889198 181.58044,65.105144 213.89495,128.744295 20.90641,41.17239 -25.46802,85.07479 -30.05136,130.05133 -3.01437,29.58009 26.10734,43.72595 46.13749,66.6059 8.75912,10.00534 18.83844,21.32597 23.72557,34.69021 4.05248,11.08185 9.12722,21.10565 12.80202,35.90525 1.45763,5.87035 3.30667,18.42309 2.93182,24.45463 -0.35895,5.77568 -0.43326,11.04275 -1.26398,15.15429 -0.89991,4.454 -2.48456,8.20338 -3.87862,12.20812 -0.4492,1.29042 -2.87306,8.13513 -9.24892,8.16917 -399.838,2.13476 -409.91082,1.80717 -764.42358,0.67853 -5.78833,-0.0184 -12.00389,5.17772 -40.293426,-14.35494 z"
     id="path2131"
     sodipodi:nodetypes="ssssssssssssssssss" />
  <path
     fill="#010101"
     d="m 325.32978,260.95936 -0.0659,-99.86013 -0.0581,-28.59384 c -0.008,-5.21171 -0.42111,-10.80423 0.3428,-15.95544 0.59718,-4.02901 1.91329,-6.91095 4.82006,-9.8503 2.99751,-3.03164 6.67595,-4.8441 10.90737,-5.3265 6.51852,-0.74298 17.53989,-0.002 24.56562,0.008 l 55.7537,0.0132 195.91696,0.0558 c 5.63749,0.70576 11.54952,0.38391 17.22347,0.31953 q 12.32352,-0.16984 24.6486,-0.17295 l 42.57318,0.19235 c 7.18705,0.024 14.50516,0.31953 21.67592,-0.0674 4.81075,0.22956 8.65361,1.79928 12.00478,5.38311 2.53217,2.70668 4.07087,5.97252 4.56413,9.63779 0.87869,6.53325 0.32727,13.71409 0.32649,20.31404 l 10e-4,37.23971 0.13494,131.8222 54.55625,-0.2792 c 7.23358,-7.7e-4 15.88642,-0.82364 22.9261,0.36761 1.65969,0.28075 2.97967,1.04545 4.16937,2.22584 1.48674,1.47587 2.3065,3.18286 2.56398,5.25281 0.58322,4.69132 0.21017,9.80919 0.19233,14.55557 l -0.0683,27.12417 -0.27221,95.07265 -210.82773,-0.076 -0.15822,-68.55572 q -18.54113,-0.097 -37.08149,0.0907 -0.1582,24.08168 -0.0255,48.16258 c 0.0294,13.25729 -0.11485,26.55104 0.15433,39.80523 12.0234,0.0481 24.11814,0.35908 36.13454,0.0597 -3.39847,-5.56614 -2.41351,-11.72635 -2.22971,-17.98817 q 23.26192,0.31333 46.52617,0.29084 l 98.65803,0.46223 43.02299,0.0784 c 7.37163,0.0162 14.90613,-0.28695 22.25138,0.14581 2.13277,0.12564 5.40328,0.17372 6.93111,1.76051 1.72095,1.78842 1.77912,4.64866 1.61316,6.96678 -0.21174,2.95564 -0.97022,5.7104 -2.13666,8.42639 l 19.49817,0.0745 c 3.10996,0.005 6.49137,-0.28696 9.55791,0.0939 0.83372,0.1032 1.0214,0.2412 1.63253,0.7709 -0.27919,0.84224 -0.44051,1.0881 -1.36885,1.41538 -2.35302,0.82985 -34.60592,0.13882 -40.23876,0.12952 l -113.45014,-0.0162 -353.66976,0.0434 -152.47827,0.0637 c -17.91061,-0.0388 -35.85829,0.26988 -53.763,0.0248 -1.1448,-0.0162 -2.49495,-0.0349 -3.55746,-0.50179 -0.15448,-0.0674 -0.30294,-0.14889 -0.4544,-0.22334 -0.39165,-0.75928 -0.23064,-0.80813 -0.0664,-1.60773 1.62431,-1.01133 6.66145,-0.4855 8.7577,-0.48317 11.69758,0.63983 23.602,0.24896 35.32524,0.28928 5.17294,0.0179 13.98709,0.69877 18.68771,-0.21793 -0.0613,-24.81535 -1.12998,-49.72997 -1.85511,-74.53834 q -0.34125,-10.23575 -0.51031,-20.47614 c -0.0776,-5.4343 0.0954,-11.08807 -0.52196,-16.49135 -0.28462,-2.48874 -1.03691,-4.35395 -2.32355,-6.48672 -6.97765,-11.57047 -14.65794,-22.85863 -21.93651,-34.25538 -3.38295,-5.29857 -7.36619,-10.52502 -9.90612,-16.28272 -1.69769,-3.84674 -2.67722,-7.95174 -2.67876,-12.1661 q -0.005,-0.85697 0.0443,-1.71241 0.0496,-0.85621 0.15356,-1.70699 0.1039,-0.85079 0.26136,-1.69303 0.15743,-0.84303 0.36839,-1.67365 0.21095,-0.83062 0.47463,-1.64649 0.26292,-0.81511 0.57779,-1.61238 0.31488,-0.79727 0.67939,-1.57359 0.36451,-0.77556 0.77788,-1.52629 c 3.20691,-5.90816 8.54271,-11.07333 12.96723,-16.10124 q 12.94242,-14.98988 26.87599,-29.06383 c -2.10174,-1.36808 -4.25622,-2.7253 -6.2331,-4.27019 -6.43632,-5.03102 -12.11335,-12.60273 -13.01533,-20.92828 -0.84768,-7.81913 3.42407,-18.06728 11.03612,-21.40914 1.77291,-0.77865 11.99236,-2.72839 12.12808,-2.87884 0.87405,-0.96867 0.21328,-12.95483 6.29982,-20.09768 q 0.36683,-0.42422 0.75461,-0.82984 0.38778,-0.4056 0.79572,-0.79105 0.40716,-0.38623 0.83294,-0.75151 0.42655,-0.36452 0.87017,-0.70809 0.44361,-0.34357 0.90351,-0.66464 0.46069,-0.32109 0.9361,-0.6189 0.47542,-0.29703 0.96556,-0.5708 0.48937,-0.27377 0.9927,-0.52272 0.50257,-0.24896 1.01676,-0.47309 0.51496,-0.22414 1.04001,-0.42191 0.52506,-0.19775 1.0594,-0.36915 0.53359,-0.1714 1.0757,-0.31643 0.54211,-0.14502 1.0912,-0.26292 0.54832,-0.11708 1.10207,-0.20784 0.55374,-0.09 1.11136,-0.15279 0.55763,-0.0628 1.11757,-0.0977 c 7.56629,-0.49635 13.92892,2.77338 19.47102,7.59111 2.00093,-0.31953 4.13679,-0.54676 6.16486,-0.40871 5.48549,0.37381 11.96755,3.35891 15.47072,7.68107 1.44874,1.78609 2.33287,3.93127 1.95595,6.25638 -0.44827,2.76794 -2.69737,5.35209 -4.8883,6.94042 -1.14007,8.23016 0.37148,17.00088 -6.54722,23.12697 l -0.64293,7.05365 c 3.33332,0.65921 6.65114,1.1548 9.89139,2.22118 22.5996,7.4391 36.16557,30.89336 46.34237,50.90417 2.30804,-1.23779 4.5486,-2.64774 6.80547,-3.97937 z"
     id="path10"
     style="display:inline;stroke-width:0.775552" />
  <path
     fill="#fefefe"
     d="m 710.94998,309.17701 c 1.5891,0.0853 3.4194,0.34513 4.39195,1.79851 0.51651,0.77167 0.66853,1.42546 0.35364,2.32665 -0.34433,0.98651 -1.28353,1.38049 -2.13586,1.80626 -1.61316,0.0442 -3.56522,0.20164 -4.75026,-1.14239 -0.38235,-0.43431 -0.64216,-0.99271 -0.56151,-1.56893 0.21949,-1.57206 1.49372,-2.39879 2.70204,-3.2201 z"
     id="path12"
     style="display:inline;stroke-width:0.775552" />
  <path
     fill="#fefefe"
     d="m 392.58568,230.066 c 0.0978,0.0628 0.20398,0.1132 0.29316,0.18769 0.80192,0.67085 0.77323,0.77711 0.79805,1.76826 -1.28432,2.31502 -7.31967,5.8213 -9.88287,6.86674 l -2.65239,-2.7059 c 3.79168,-1.97379 7.40731,-4.70373 11.44405,-6.11679 z"
     id="path14"
     style="display:inline;stroke-width:0.775552" />
  <path
     fill="#fefefe"
     d="m 243.87117,202.09649 c 1.07802,0.8182 2.16302,1.65812 3.32324,2.35845 4.36016,2.62912 8.21466,2.51822 12.98585,1.42391 -0.11555,3.42407 -0.21094,5.35985 -2.17154,8.30539 -1.70002,1.41305 -3.44112,2.49262 -5.34743,3.59701 -3.46595,-1.83573 -6.08266,-3.99642 -8.88628,-6.72792 -0.0683,-2.99751 -0.0419,-5.96088 0.0961,-8.95684 z"
     id="path16"
     style="display:inline;stroke-width:0.775552" />
  <path
     fill="#fefefe"
     d="m 209.06671,273.10761 c 0.55296,2.45541 -5.92445,28.77455 -6.98928,33.86528 l -2.07305,-4.48967 c -1.90554,-3.64665 -4.03909,-7.2964 -5.36373,-11.19976 2.48643,-6.116 9.83478,-13.29607 14.42606,-18.17585 z"
     id="path18"
     style="display:inline;stroke-width:0.775552;fill:#437371;fill-opacity:1" />
  <path
     fill="#fefefe"
     d="m 248.20185,409.19304 c 0.3591,1.14238 0.52041,2.33363 0.66621,3.51944 0.62897,5.11788 6.20597,55.68622 5.82362,56.5339 -0.0954,0.21173 -0.28462,0.36685 -0.42733,0.54987 l -1.48131,0.0737 -7.47631,-0.001 c 0.54443,-20.16437 1.43942,-40.55906 2.89512,-60.67534 z"
     id="path20"
     style="display:inline;fill:#437371;stroke-width:0.775552;fill-opacity:1" />
  <path
     fill="#fefefe"
     d="m 367.35542,228.27371 c 0.18069,0.0559 0.36606,0.10002 0.54365,0.16751 2.85714,1.07802 3.94524,8.32788 5.31255,11.04775 0.0652,0.13029 0.13494,0.25825 0.20163,0.38699 1.64495,-0.91282 3.21699,-1.99549 4.80378,-3.00836 2.39645,2.28556 4.7363,5.10623 6.54566,7.88349 1.43167,2.19792 2.68031,4.81773 2.02651,7.49649 -1.12843,4.6192 -7.2103,7.27779 -11.02214,9.44933 -2.28245,1.13851 -4.44004,2.58104 -6.60693,3.92585 -3.71801,-5.72125 -7.74313,-11.24861 -11.59063,-16.88455 6.37892,-6.19511 8.5621,-11.72325 9.78592,-20.4645 z"
     id="path22"
     style="display:inline;stroke-width:0.775552" />
  <path
     fill="#fefefe"
     d="m 250.51688,170.86343 c 8.54349,-0.4537 8.94135,4.52535 15.84376,6.5162 0.0248,6.00045 0.8345,13.96614 -1.47587,19.554 -1.40375,3.39692 -3.63191,4.88753 -6.9125,6.28818 -1.95905,0.51807 -4.02279,0.77478 -5.99812,0.2094 -3.26198,-0.93299 -5.59716,-3.42717 -7.08855,-6.38823 -2.01256,-3.99564 -4.26399,-17.18469 -2.23126,-20.89415 0.97718,-1.78455 6.01207,-4.71382 7.86254,-5.2854 z"
     id="path24"
     style="display:inline;stroke-width:0.775552" />
  <path
     fill="#fefefe"
     d="m 464.45846,381.81603 109.25362,0.0473 0.0264,87.87552 -109.08999,0.0272 c -0.60182,-10.54053 -0.22956,-21.27651 -0.22956,-31.84264 z"
     id="path26"
     style="display:inline;stroke-width:0.775552" />
  <path
     fill="#010101"
     d="m 516.00013,401.21647 c 2.95486,-0.23654 5.67161,0.0652 8.37751,1.35955 3.95765,1.89389 6.93732,5.52814 8.30151,9.67036 1.49139,4.52768 1.08423,9.73474 -1.2339,13.91729 -2.36543,4.26865 -6.08266,6.3541 -10.61033,7.63919 -3.92584,0.22724 -7.17231,-0.0713 -10.61576,-2.2235 q -0.33427,-0.20785 -0.65845,-0.43277 -0.3234,-0.22413 -0.63595,-0.46378 -0.31254,-0.24042 -0.61268,-0.49558 -0.30014,-0.25437 -0.58788,-0.52427 -0.28695,-0.26911 -0.56072,-0.55297 -0.27377,-0.28307 -0.53358,-0.57933 -0.25903,-0.29627 -0.50411,-0.60494 -0.24429,-0.30867 -0.47386,-0.62974 -0.22879,-0.32031 -0.44207,-0.65147 -0.21327,-0.33115 -0.40949,-0.6724 -0.19699,-0.34125 -0.37692,-0.6918 -0.17915,-0.35055 -0.34124,-0.70963 -0.16209,-0.35908 -0.30634,-0.72591 -0.14425,-0.36684 -0.27067,-0.73988 -0.12642,-0.37304 -0.23421,-0.75151 -0.10708,-0.37924 -0.19622,-0.76315 c -1.02683,-4.46174 -0.24817,-9.41985 2.18938,-13.30459 2.53296,-4.03443 6.20209,-6.05707 10.73598,-7.06917 z"
     id="path28"
     style="display:inline;stroke-width:0.775552" />
  <path
     fill="#4b71be"
     d="m 215.54567,335.28365 75.05565,0.0907 q 3.51402,67.21169 8.08901,134.36135 -20.44047,-0.0791 -40.88171,0.0535 c -0.73909,-14.56642 -3.0231,-29.3407 -4.61531,-43.85206 -0.59562,-6.02139 -2.58569,-29.24997 -4.64633,-33.05017 -0.92911,-0.41259 -0.97874,-0.36993 -1.97844,-0.13959 -0.21327,0.25593 -0.50566,0.463 -0.63905,0.76779 -0.74066,1.7 -3.38994,68.33393 -3.75057,76.27868 l -37.26763,-0.0341 c -1.05707,-11.63949 -0.52039,-23.66365 -0.82285,-35.36365 q -1.3169,-39.46243 -1.6814,-78.94503 c 4.04838,-6.88845 8.71876,-13.5078 13.13863,-20.16747 z"
     id="path30"
     style="display:inline;stroke-width:0.775552" />
  <path
     fill="#fefefe"
     d="m 239.63821,214.75583 c 4.19961,-0.45292 6.97299,3.34884 10.64989,4.86658 1.26492,0.52273 2.75165,0.66542 4.1019,0.84303 2.70046,-1.56972 5.18145,-3.64355 7.64073,-5.56227 1.40298,0.10544 2.80286,0.23035 4.18799,0.4824 18.64195,3.4008 32.40336,20.22098 41.41217,35.6762 3.38684,5.81043 6.20675,12.29637 10.06745,17.78031 0.0907,0.12952 0.18458,0.25593 0.2761,0.3839 11.2393,-7.6865 23.66986,-13.57373 35.45128,-20.37609 5.01782,4.88675 9.65097,12.27466 12.98894,18.45195 -6.25327,4.26321 -12.83927,8.10296 -19.28255,12.07224 -7.67875,4.7301 -15.34586,9.66959 -23.52872,13.50237 -5.56226,2.60508 -11.38898,4.08948 -17.39254,1.77213 -7.20643,-2.78268 -13.60783,-13.17586 -15.73828,-20.41874 -0.64759,-2.20102 -0.51729,-4.73475 -1.45415,-6.79617 -0.82442,-0.45137 -0.67784,-0.59019 -1.64806,-0.31798 -0.75461,1.29053 -0.73678,2.55468 -0.71429,4.01349 0.1032,6.7124 1.50845,13.59854 2.25454,20.27372 q 2.1413,20.5374 4.58739,41.04068 c -18.69856,0.22723 -37.42739,0.0106 -56.12906,0.0106 q -10.881,0.0527 -21.76045,-0.1334 c -0.0311,-0.0767 -0.0628,-0.15278 -0.0939,-0.22956 -2.82069,-7.13276 -7.41894,-14.09334 -10.9632,-20.93294 1.16255,-10.48236 4.15229,-21.18188 6.36573,-31.51224 0.80889,-3.77539 1.99316,-7.81679 2.19248,-11.66742 0.0504,-0.98107 -0.0186,-0.9229 -0.67628,-1.65735 l -0.68559,0.0481 c -4.30509,3.36434 -17.39253,17.97963 -19.28876,22.73998 -0.60648,1.5224 -0.33892,2.89978 0.11249,4.43383 1.07181,3.64122 3.21234,7.14904 4.9426,10.51261 q 4.24226,8.31857 8.64973,16.5503 c 2.19869,4.07009 4.6378,8.10296 6.51542,12.32818 l 0.22103,0.50333 c -3.2201,6.76049 -8.26972,12.97034 -12.20332,19.38339 -7.37473,-11.88224 -15.16747,-23.49382 -22.64846,-35.30936 -3.26198,-5.15122 -6.95437,-10.3544 -9.68587,-15.80111 -1.36187,-2.71521 -2.4903,-5.59949 -2.92229,-8.62026 -1.04932,-7.34604 0.96402,-13.91419 5.44438,-19.74712 5.14424,-6.69767 11.07722,-12.89898 16.71238,-19.19259 8.96151,-10.00851 18.14095,-21.56269 29.06228,-29.45239 6.83882,-4.94027 14.54471,-8.82966 22.97885,-9.94258 z"
     id="path32"
     style="display:inline;stroke-width:0.775552" />
  <path
     fill="#fefefe"
     d="m 291.04105,282.74231 c 1.03536,1.07724 1.75973,2.75088 2.52442,4.05691 2.53684,4.32758 5.86861,8.19681 10.5638,10.26211 6.47665,2.84937 13.11459,1.60694 19.47103,-0.76935 l 0.0473,47.42193 c 10e-4,7.64772 -0.8438,17.75007 0.5235,25.07594 0.55064,2.95021 2.30805,5.62974 4.36636,7.76018 2.58182,2.67178 5.57157,4.38032 9.24149,4.9837 4.78516,0.78563 10.03099,0.38235 14.86889,0.3552 l 22.73841,-0.0767 85.93743,0.0674 0.19854,60.69629 c 0.024,6.64416 0.82363,21.44636 -0.24586,27.2436 l -159.64048,0.22336 c -0.83837,-14.48886 -9.02822,-130.83569 -8.1022,-133.77038 0.36374,-1.1548 1.38435,-1.25794 2.39878,-1.67907 0.29083,-0.45292 0.49325,-0.8376 0.51264,-1.39057 0.1458,-4.15541 -0.97254,-8.92428 -1.43554,-13.11459 -1.36265,-12.34447 -3.2899,-24.95728 -3.96851,-37.34595 z"
     id="path34"
     style="display:inline;fill:#437371;stroke-width:0.775552;fill-opacity:1" />
  <path
     fill="#fefefe"
     d="m 620.11649,319.10641 198.59029,-0.0132 0.21871,93.9698 c -0.0162,10.56924 0.60105,21.32227 0.15666,31.86048 l -199.54189,0.24663 c -0.006,-10.11321 -0.48084,-124.49247 0.004,-125.45803 0.12487,-0.24818 0.38158,-0.40329 0.57236,-0.6057 z"
     id="path36"
     style="display:inline;stroke-width:0.775552" />
  <path
     fill="#da776c"
     d="m 645.84001,400.32304 c 6.06172,-0.13185 12.13585,-0.0822 18.19989,-0.10472 l 0.0318,34.57103 q -9.08094,0.0294 -18.15956,0.20706 z"
     id="path38"
     style="display:inline;stroke-width:0.775552" />
  <path
     fill="#dadada"
     d="m 730.05804,402.20531 q 10.81507,0.2947 21.63325,0.20785 c 0.10625,10.56302 -0.002,21.13613 -0.0132,31.69993 l -21.60845,0.0217 z"
     id="path40"
     style="display:inline;stroke-width:0.775552" />
  <path
     fill="#4b71be"
     d="m 688.15493,372.77542 18.85213,0.0674 c -0.59562,6.71939 -0.1838,13.77071 -0.15045,20.51802 l 0.29858,40.66143 c -4.81695,0.81123 -13.71564,0.10932 -18.96148,0.0791 q -0.22413,-30.66379 -0.0388,-61.32603 z"
     id="path42"
     style="display:inline;stroke-width:0.775552" />
  <path
     fill="#4b71be"
     d="m 772.124,361.53456 20.7344,0.0349 -0.024,72.93528 -20.56765,-0.0892 z"
     id="path44"
     style="display:inline;stroke-width:0.775552" />
  <path
     fill="#fefefe"
     d="m 341.54115,104.18609 q 0.94152,-0.0481 1.88382,-0.062 c 27.7322,-0.38312 55.52102,-0.0442 83.25943,-0.0458 l 161.21952,-0.0171 96.4508,0.19545 q 12.48097,0.13727 24.96271,0.12253 c 4.79137,0.009 9.70061,-0.22336 14.46871,0.19467 4.03985,0.35442 6.93965,1.59066 9.82935,4.51992 2.22972,2.25996 3.51635,4.91699 3.85915,8.0766 0.63906,5.90118 0.12021,12.28785 0.14969,18.2534 l 0.13416,39.81531 0.0194,130.62631 -82.40555,-0.0814 q -10.55683,0.0365 -21.11365,-0.0388 c -3.83665,-0.0349 -7.91761,-0.3583 -11.73255,0.0333 -2.27238,0.23344 -4.19652,0.87094 -5.89885,2.45229 -1.25795,1.16799 -2.33752,2.8013 -2.64697,4.51217 -1.08112,5.97331 -0.21327,15.12948 -0.15356,21.54408 0.13961,14.92163 0.36839,29.90684 0.0171,44.8246 l -5.10081,0.021 -181.31253,0.0194 -58.23081,0.0311 c -9.8689,0.0147 -21.08417,0.85466 -30.75375,-0.21638 -2.95486,-0.32805 -5.57003,-2.08468 -7.60585,-4.1686 -1.59764,-1.63486 -3.42174,-4.14067 -3.87156,-6.42933 -1.16022,-5.90583 -0.31254,-15.58239 -0.33658,-21.89849 q -0.29084,-25.98024 0.0605,-51.95892 c 15.25976,-8.29453 29.95183,-17.42821 44.58108,-26.7713 4.26632,-2.72528 9.00416,-4.88597 13.04789,-7.93079 1.94509,-1.46424 4.64401,-3.6195 5.3327,-6.01286 1.28121,-4.44701 -1.92725,-9.09412 -4.00495,-12.82298 3.32401,-1.79076 8.90877,-3.9972 10.70572,-7.45461 q 0.12486,-0.24042 0.22414,-0.49248 0.10002,-0.25205 0.17449,-0.51264 0.0745,-0.26058 0.12254,-0.52737 0.0473,-0.2668 0.0691,-0.53668 0.021,-0.27068 0.0147,-0.54134 -0.006,-0.27068 -0.0395,-0.53979 -0.0326,-0.26912 -0.0923,-0.53358 -0.0597,-0.26446 -0.1458,-0.52117 c -0.2823,-0.81898 -0.84768,-1.44718 -1.65891,-1.76981 -4.78515,-1.90321 -14.81383,6.13617 -19.66957,7.85945 l -0.51728,0.1776 c -0.91438,-2.90367 -1.87762,-7.53449 -4.45478,-9.38728 -0.86707,-0.62356 -1.99937,-0.92214 -3.05723,-0.68947 -0.3172,0.0698 -1.08499,0.34046 -1.30835,0.52892 -0.66,0.55529 -1.31534,3.37056 -1.54878,4.20272 -1.18815,4.23219 -2.43524,7.77491 -4.55016,11.65268 -0.546,1.00201 -0.933,1.68605 -1.93191,2.30339 -2.74856,1.69769 -6.16796,2.41274 -9.08792,3.88784 -6.96834,3.52179 -13.7839,7.49804 -20.65762,11.21682 l -0.0162,-97.03015 -0.0535,-27.23275 c -0.0372,-5.66463 -0.36063,-11.49601 0.1241,-17.13505 0.2187,-2.54459 0.8244,-4.65177 2.25143,-6.81323 2.63688,-3.99177 6.45259,-5.94073 10.99577,-6.89931 z"
     id="path46"
     style="display:inline;stroke-width:0.775552" />
  <path
     fill="#010101"
     d="m 509.95857,298.94205 23.9258,-0.11945 c 3.66525,-0.0186 8.2984,-0.58941 11.83492,0.23422 0.96556,1.0726 0.92912,2.5128 0.90429,3.88165 q -0.0255,0.96789 -0.10001,1.93345 -0.0737,0.96478 -0.19544,1.9257 -0.12254,0.96013 -0.29161,1.91328 -0.16984,0.95316 -0.387,1.89623 -0.21715,0.94385 -0.48085,1.87529 -0.26368,0.93143 -0.57391,1.84891 -0.30943,0.91671 -0.66464,1.81789 -0.3552,0.90042 -0.75462,1.78222 -0.40018,0.88181 -0.84302,1.74268 -0.44284,0.86085 -0.92834,1.69845 -0.48549,0.83759 -1.0121,1.65038 -0.52659,0.81201 -1.09274,1.59686 -0.56616,0.78563 -1.17109,1.5418 -0.60494,0.75539 -1.24632,1.48053 -0.64215,0.72514 -1.3192,1.41693 -0.67706,0.6918 -1.38746,1.34947 c -7.37241,6.82486 -17.1087,9.90458 -27.0761,9.50749 q -0.89499,-0.0365 -1.78687,-0.11708 -0.89267,-0.0814 -1.77989,-0.20552 -0.88723,-0.1241 -1.76672,-0.29161 -0.88025,-0.16829 -1.75119,-0.37847 -0.87017,-0.21095 -1.72948,-0.46379 -0.85932,-0.2536 -1.70544,-0.54831 -0.84613,-0.29548 -1.67597,-0.6313 -0.83062,-0.33659 -1.6434,-0.71273 -0.81277,-0.37615 -1.60616,-0.79261 -0.7934,-0.41571 -1.56584,-0.87017 -0.77168,-0.45447 -1.52087,-0.94618 -0.7484,-0.49093 -1.47277,-1.01908 -0.72359,-0.52814 -1.42081,-1.09042 -0.69644,-0.56306 -1.36575,-1.15868 -0.66852,-0.59639 -1.30681,-1.22459 -0.63827,-0.62821 -1.24553,-1.28742 c -7.2964,-7.95717 -10.36139,-18.44574 -9.94724,-29.0809 8.94212,0.30945 17.97343,0.0892 26.92408,0.0938 2.32278,-0.0201 6.27034,-0.47619 8.31238,0.61734 l 0.0767,0.67318 c -0.58089,0.55297 -1.1168,0.86784 -1.92337,0.99814 -2.7408,0.44051 -6.11368,0.0426 -8.91111,0.0404 l -21.6953,-0.0132 c 0.56694,10.06278 3.21544,18.66289 10.47694,25.98876 q 0.58011,0.57391 1.18737,1.11912 0.60648,0.54522 1.24011,1.06018 0.63285,0.51496 1.28975,0.99814 0.65766,0.48394 1.33705,0.93454 0.68015,0.45137 1.38125,0.86861 0.7011,0.41725 1.42159,0.80038 0.72049,0.38234 1.4596,0.72979 0.73831,0.34745 1.49215,0.65845 0.75462,0.31099 1.52319,0.58476 0.76858,0.27377 1.54955,0.50954 0.78098,0.23654 1.57283,0.43431 0.79183,0.19777 1.59143,0.35753 0.80037,0.15899 1.60772,0.2792 0.80735,0.11944 1.61858,0.20009 0.812,0.0807 1.62711,0.12176 0.81511,0.0411 1.63098,0.0426 c 9.16625,0.0356 18.12002,-3.29688 24.64473,-9.80299 6.89544,-6.87605 10.78638,-16.00429 10.75072,-25.72352 -7.72451,-0.39087 -15.6049,-0.0449 -23.34491,-0.0132 -3.42174,0.014 -7.05986,0.27455 -10.44825,-0.22879 -0.51574,-0.79261 -0.28463,-1.55809 -0.24275,-2.48409 z"
     id="path48"
     style="display:inline;stroke-width:0.775552" />
  <path
     fill="#010101"
     d="m 709.66564,138.82304 c -0.0587,0.10084 -1.83201,1.01471 0.13107,-4.59903 m 0,0 h 1e-5 c 0.33892,0.008 0.95936,0.008 1.27579,0.0807 0.49557,0.1132 0.98728,0.33891 1.20366,0.81587 0.36683,0.80736 0.64681,100.52169 -0.18148,103.6301 -1.43477,0.73134 -3.42329,0.68946 -5.02947,0.72359 -12.35764,0.26446 -24.77269,-0.0279 -37.135,-0.0341 l -68.99236,-0.0287 c -11.92697,-0.046 -23.85367,-0.0197 -35.78012,0.0791 -6.86906,0.0341 -13.88083,0.34357 -20.73207,-0.14813 -0.46998,-6.97842 -0.23654,-14.14918 -0.24352,-21.14621 l -0.0295,-37.52511 -0.1039,-25.33342 c -0.0194,-4.75802 -0.44826,-9.9201 0.35055,-14.60442 0.61191,-0.58167 0.60261,-0.55841 1.44951,-0.60417 0.6119,0.77943 0.75384,1.40066 0.80967,2.3732 0.17606,3.05102 -0.0404,6.24242 -0.0341,9.31361 l 0.0481,21.90005 c -0.007,23.98243 0.35781,30.14233 0.19992,46.05251 -0.0464,4.66408 -0.1119,10.14326 -0.0487,17.13639 16.09349,0.51653 32.29012,-0.0473 48.39912,-0.0106 l 114.65458,-0.0333 -0.21173,-98.03835"
     id="path50"
     sodipodi:nodetypes="ccccccccccccccccccccscccc"
     style="display:inline;stroke-width:0.775552" />
  <path
     fill="#010101"
     d="m 502.67071,263.61407 c 1.53947,-0.2125 3.15184,-0.073 4.70294,-0.0287 0.11867,11.3952 0.47231,23.03779 -0.38312,34.39963 l -30.01543,0.0978 -5.22955,-0.0574 q -0.008,-0.68948 0.0125,-1.37894 0.0201,-0.68947 0.0691,-1.37738 0.0481,-0.68792 0.12408,-1.37351 0.0767,-0.68559 0.18071,-1.36729 0.10472,-0.68172 0.23655,-1.35878 0.13184,-0.67628 0.29083,-1.34713 0.15976,-0.67163 0.34589,-1.3355 0.18691,-0.66388 0.40018,-1.31921 0.21328,-0.65612 0.45294,-1.30293 0.24041,-0.64681 0.50642,-1.28277 0.26602,-0.63595 0.55763,-1.26105 0.2916,-0.62509 0.60881,-1.23777 0.3172,-0.61192 0.65844,-1.21142 0.34202,-0.59873 0.70731,-1.18349 0.36606,-0.58477 0.75538,-1.15403 0.38933,-0.56925 0.80115,-1.12221 c 5.81819,-7.7152 14.70758,-12.52751 24.2174,-13.79787 z"
     id="path52"
     style="display:inline;stroke-width:0.775552" />
  <path
     fill="#dadada"
     d="m 441.53468,162.24627 73.38743,0.0248 c -0.0458,5.02558 0.10084,10.06667 0.16054,15.09303 l -73.50686,-0.21871 z"
     id="path54"
     style="display:inline;stroke-width:0.775552" />
  <path
     fill="#010101"
     d="m 509.92832,258.06655 c 3.3853,-0.083 6.50456,0.1458 9.79291,1.00201 9.83244,2.55855 18.80481,10.1799 23.87615,18.86609 2.37087,4.06002 6.0687,12.71752 4.8154,17.36307 -12.93931,0.33737 -26.02288,0.14813 -38.96608,-0.052 l -0.0333,-22.65699 c -0.002,-4.67347 -0.43741,-9.94723 0.51497,-14.52222 z"
     id="path56"
     style="display:inline;stroke-width:0.775552" />
  <path
     fill="#da776c"
     d="m 512.4132,260.74221 q 1.13929,0.0814 2.27081,0.23809 1.13075,0.15667 2.24911,0.38778 1.11912,0.23112 2.21962,0.5359 1.10052,0.30403 2.17931,0.68095 1.07802,0.37691 2.12889,0.82362 1.05087,0.4475 2.06994,0.96324 1.01908,0.51575 2.00172,1.09741 0.98262,0.58167 1.92491,1.2277 c 9.20503,6.2905 14.09179,15.03564 16.11056,25.84917 l -33.41236,-0.0442 c -0.0318,-9.48966 -0.84535,-22.62752 0.25749,-31.75965 z"
     id="path58"
     style="display:inline;stroke-width:0.775552" />
  <path
     fill="#dadada"
     d="m 441.89609,191.66142 c 8.50703,0.27223 17.07999,0.0597 25.59555,0.073 l 47.75154,0.0637 -0.0434,15.46606 q -36.66579,0.2032 -73.33159,-7.7e-4 z"
     id="path60"
     style="display:inline;stroke-width:0.775552" />
  <path
     fill="#dadada"
     d="m 349.63869,161.90502 q 38.58141,0.40329 77.16514,0.36141 c 0.009,4.91468 0.37848,10.13725 -0.14967,15.0116 l -76.98832,0.20475 z"
     id="path62"
     style="display:inline;stroke-width:0.775552" />
  <path
     fill="#dadada"
     d="m 349.78062,191.74441 77.11396,0.0698 c -0.0295,5.19698 0.30246,10.63282 -0.21018,15.79257 l -76.92628,-0.28463 c 0.0737,-5.19154 0.20786,-10.38774 0.0225,-15.57774 z"
     id="path64"
     style="display:inline;stroke-width:0.775552" />
  <path
     fill="#4b71be"
     d="m 349.57897,127.12072 c 18.7265,-0.67861 37.6717,-0.12331 56.41835,-0.11555 l 109.3335,0.0419 c 0.008,3.4202 0.78952,18.49539 -0.5871,20.44667 l -165.2772,-0.24199 z"
     id="path66"
     style="display:inline;stroke-width:0.775552" />
  <g
     id="g8193"
     transform="matrix(0.28336891,0,0,0.28336891,693.98421,208.30339)"
     style="display:none">
    <g
       id="g8264">
      <g
         id="g7669"
         transform="translate(-708.97879,-562.08241)"
         style="display:inline">
        <path
           fill="#fefefe"
           d="m 700.022,484.447 c 5.446,-0.231 11.036,0.375 16.484,0.641 1.742,10.362 2.52,21.06 3.682,31.511 l -11.113,0.008 c -3.701,-0.01 -8.271,0.509 -11.889,-0.179 -1.108,-0.211 -1.691,-0.296 -2.216,-1.342 -1.316,-2.622 -2.541,-18.851 -1.204,-20.993 0.711,-1.139 2.371,-1.395 3.553,-1.581 1.326,-0.208 2.467,-0.462 3.741,-0.879 0.854,-0.896 0.994,-0.777 1.16,-2.081 -0.528,-0.563 -1.102,-1.127 -1.577,-1.735 -1.133,-1.455 -0.868,-1.668 -0.621,-3.37 z"
           id="path3148" />
        <path
           fill="#d17849"
           d="m 449.379,565.008 20.167,-0.005 -0.065,84.611 -20.345,-0.072 q -0.117,-42.267 0.243,-84.534 z"
           id="path3158" />
        <path
           fill="#475595"
           d="m 554.439,545.614 18.546,-0.057 c 0.041,34.753 0.839,69.596 0.374,104.337 -6.405,-0.092 -12.82,-0.015 -19.226,-0.011 q 0.568,-52.133 0.306,-104.269 z"
           id="path3160" />
        <path
           fill="#d7d0cb"
           d="m 653.641,539.597 18.847,-0.006 0.019,109.998 -18.825,-0.033 z"
           id="path3162" />
        <path
           fill="#475595"
           d="m 404.674,513.76 13.19,-0.133 0.022,136.222 -5.631,-0.073 q -6.874,0.027 -13.747,-0.058 l 0.01,-135.864 z"
           id="path3164" />
        <path
           fill="#d17849"
           d="m 605.921,468.92 q 9.386,-0.05 18.772,0.039 0.778,90.354 0.527,180.711 h -19.334 z"
           id="path3168" />
        <path
           fill="#191818"
           d="m 222.593,554.749 c 8.979,-0.333 18.066,-0.067 27.056,-0.067 l 52.008,-0.005 c 7.411,-0.005 31.104,-1.131 36.83,0.301 l 0.432,0.78 -0.475,0.921 c -9.939,0.328 -114.339,0.475 -115.135,0.119 -0.297,-0.133 -0.527,-0.381 -0.791,-0.571 z"
           id="path3198" />
        <path
           fill="#191818"
           d="m 221.456,586.137 c 0.485,-0.068 0.972,-0.124 1.46,-0.164 6.642,-0.537 13.532,-0.231 20.193,-0.23 l 37.417,0.086 39.596,0.142 c 5.143,0.016 10.563,-0.382 15.673,-0.102 1.404,0.077 2.066,0.238 3.138,1.137 l -0.071,1.346 c -9.724,0.337 -114.309,0.116 -116.365,-0.619 -0.834,-0.298 -0.759,-0.833 -1.041,-1.596 z"
           id="path3200" />
        <path
           fill="#191818"
           d="m 222.381,617.694 85.543,-0.167 c 5.542,-0.003 26.04,-0.768 29.871,0.061 0.479,0.103 0.644,0.27 0.996,0.532 l 0.192,1.753 c -15.59,0.826 -31.676,0.049 -47.332,0.05 -22.416,0 -44.909,0.516 -67.312,0.088 -0.736,-0.014 -1.056,-0.104 -1.653,-0.523 z"
           id="path3202" />
        <path
           fill="#191818"
           d="m 717.26,343.161 1.077,0.682 c 0.416,1.498 -0.039,2.86 -0.555,4.281 -4.977,13.719 -10.974,27.185 -16.44,40.722 -3.135,7.767 -5.769,16.884 -9.973,24.058 -1.562,2.664 -3.735,5.402 -6.625,6.693 -1.876,0.838 -3.776,0.842 -5.688,0.108 -3.134,-1.202 -5.575,-4.039 -7.264,-6.842 -2.984,-4.952 -4.838,-11.112 -6.912,-16.506 -3.901,-10.143 -7.719,-20.512 -12.191,-30.41 -1.596,-3.532 -3.89,-7.61 -7.804,-8.901 -3.427,-1.13 -6.54,0.84 -8.671,3.425 -3.483,4.225 -5.208,10.437 -7.232,15.487 L 618.3,401.88 c -2.406,5.838 -4.554,12.554 -8.017,17.823 -1.327,2.021 -2.858,3.571 -5.013,4.699 -2.395,1.255 -5.087,1.77 -7.69,0.851 -8.839,-3.122 -15.307,-26.019 -19.421,-34.63 -1.713,-3.586 -4.253,-8.205 -8.307,-9.433 -3.375,-1.021 -7.03,1.032 -9.029,3.695 -3.013,4.016 -4.374,9.906 -6.051,14.62 q -5.523,15.051 -10.83,30.178 c -2.535,7.272 -4.649,15.775 -8.471,22.468 -1.65,2.889 -3.949,5.583 -6.968,7.09 -3.97,1.981 -7.11,1.27 -11.092,-0.165 -5.109,-5.221 -7.497,-13.509 -10.191,-20.158 l -11.828,-29.49 c -2.173,-5.49 -4.103,-11.449 -6.833,-16.676 -1.067,-2.043 -2.284,-4.13 -4.258,-5.421 -2.206,-1.443 -4.979,-1.742 -7.508,-1.075 -2.156,0.568 -3.734,2.124 -4.917,3.951 -3.566,5.509 -5.826,12.52 -8.417,18.58 l -15.064,34.426 c -3.154,7.262 -6.001,15.31 -10.045,22.092 -0.086,0.145 -0.177,0.288 -0.265,0.432 -0.605,-0.289 -0.89,-0.571 -1.364,-1.032 -0.011,-1.663 0.519,-2.971 1.152,-4.49 6.081,-14.61 13.132,-28.954 19.476,-43.477 3.704,-8.478 6.751,-18.186 11.37,-26.145 1.893,-3.262 4.78,-6.424 8.584,-7.353 4.676,-1.142 9.068,2.063 11.689,5.664 3.557,4.887 5.419,11.624 7.612,17.219 3.684,9.4 7.728,18.654 11.47,28.03 2.304,5.772 4.076,12.126 7.131,17.548 1.294,2.297 2.976,4.459 5.311,5.769 1.728,0.97 3.641,1.337 5.546,0.674 3.125,-1.089 5.371,-4.323 6.961,-7.05 3.878,-6.654 6.039,-14.974 8.601,-22.253 l 9.955,-27.842 c 1.781,-5.098 3.272,-10.647 5.86,-15.385 1.834,-3.357 5.033,-6.165 8.797,-7.137 16.251,-4.197 19.516,37.256 30.878,43.698 1.821,1.033 4.15,1.409 6.154,0.686 2.346,-0.846 4.063,-3.18 5.289,-5.237 2.446,-4.104 4.019,-8.995 5.885,-13.392 3.168,-7.466 6.539,-14.851 9.578,-22.371 2.449,-6.058 4.535,-12.44 7.396,-18.308 1.889,-3.873 4.977,-8.203 9.303,-9.518 18.031,-5.481 25.163,55.963 37.77,62.442 1.912,0.982 3.963,1.104 6,0.444 2.093,-0.678 3.394,-2.989 4.422,-4.807 2.936,-5.192 4.898,-11.305 7.194,-16.82 q 6.358,-15.099 12.351,-30.347 c 2.862,-7.27 5.505,-14.701 8.804,-21.786 z"
           id="path3204" />
        <path
           fill="#F8C684"
           d="m 498.652,507.663 24.976,-0.006 q -0.445,71.996 -0.104,143.986 -12.358,-0.073 -24.716,0.05 c -0.196,-47.984 0.836,-96.07 -0.156,-144.03 z"
           id="path3206"
           style="font-variation-settings:normal;opacity:1;fill:#d7d0cb;fill-opacity:1;stroke:#000000;stroke-width:3;stroke-linecap:butt;stroke-linejoin:miter;stroke-miterlimit:4;stroke-dasharray:none;stroke-dashoffset:0;stroke-opacity:1;stop-color:#000000;stop-opacity:1" />
        <path
           fill="#191818"
           d="m 300.655,320.964 c 3.226,-0.03 6.415,0.028 9.631,0.305 20.06,1.732 39.662,11.63 52.551,27.221 11.505,13.917 19.312,33.691 17.579,51.941 -26.626,0.675 -53.409,0.062 -80.047,0.008 -0.348,-13.065 -0.077,-26.219 -0.071,-39.292 0.006,-13.363 -0.256,-26.841 0.357,-40.183 z"
           id="path3208" />
        <path
           fill="#f8c684"
           d="m 302.818,323.617 c 19.36,0.048 37.259,6.709 51.582,19.784 15.451,14.105 23.219,33.896 24.09,54.519 l -75.665,0.076 c 0.335,-24.772 -0.126,-49.597 -0.007,-74.379 z"
           id="path3210" />
        <path
           fill="#191818"
           d="m 292.287,338.221 1.71,0.157 c 0.233,0.27 0.551,0.487 0.7,0.811 1.149,2.501 0.16,59.351 0.129,66.94 22.983,0.02 46.074,-0.549 69.04,0.094 0.729,19.514 -7.075,38.752 -20.284,52.976 -14.359,15.463 -32.516,21.986 -53.247,22.72 -18.72,-0.405 -34.995,-5.807 -49.299,-18.18 -13.756,-11.898 -21.917,-29.719 -23.113,-47.758 -1.294,-19.521 5.66,-38.333 18.493,-52.962 14.703,-16.761 34.169,-23.425 55.871,-24.798 z"
           id="path3212" />
        <path
           fill="#d7d0cb"
           d="m 286.645,341.193 c 1.872,-0.297 3.919,-0.259 5.82,-0.371 -0.066,22.534 -0.666,45.26 0.073,67.772 22.949,0.331 45.956,-0.029 68.911,-0.044 -0.2,16.307 -5.525,31.366 -15.615,44.217 -12.196,15.532 -29.277,24.315 -48.709,26.701 -19.899,0.85 -36.964,-3.518 -52.784,-15.992 -13.258,-10.454 -21.652,-26.835 -23.515,-43.507 -2.139,-19.141 3.024,-38.002 15.205,-53.005 12.783,-15.745 30.741,-23.775 50.614,-25.771 z"
           id="path3214" />
      </g>
    </g>
  </g>
  <rect
     style="fill:#000000;fill-opacity:1;stroke-width:0.91031"
     id="rect2785"
     width="900.0014"
     height="3.2328331"
     x="0.044194181"
     y="469.73987" />
</svg>
